<svg xmlns="http://www.w3.org/2000/svg" width="820" height="120" viewBox="0 0 820 120" role="img" aria-label="Predator Slime — Roadmap MVP">
  <rect width="100%" height="100%" fill="#0d1117" rx="12"/>
  <text x="410.0" y="28" text-anchor="middle" fill="#e6edf3" font-family="Segoe UI, sans-serif" font-size="14" font-weight="700">Predator Slime — Roadmap MVP</text>
  <rect x="20" y="52" width="88" height="36" rx="8" fill="#3fb950" stroke="#3fb950" stroke-width="1"/>
  <text x="64.0" y="74" text-anchor="middle" fill="#e6edf3" font-family="Segoe UI, sans-serif" font-size="11" font-weight="600">F0</text>
  <line x1="108" y1="70" x2="116" y2="70" stroke="#7ee787" stroke-width="2" opacity="0.45"/>
  <rect x="116" y="52" width="88" height="36" rx="8" fill="#58a6ff" stroke="#7ee787" stroke-width="2"/>
  <text x="160.0" y="74" text-anchor="middle" fill="#e6edf3" font-family="Segoe UI, sans-serif" font-size="11" font-weight="600">F1</text>
  <line x1="204" y1="70" x2="212" y2="70" stroke="#7ee787" stroke-width="2" opacity="0.45"/>
  <rect x="212" y="52" width="88" height="36" rx="8" fill="#30363d" stroke="#30363d" stroke-width="1"/>
  <text x="256.0" y="74" text-anchor="middle" fill="#e6edf3" font-family="Segoe UI, sans-serif" font-size="11" font-weight="600">F2</text>
  <line x1="300" y1="70" x2="308" y2="70" stroke="#7ee787" stroke-width="2" opacity="0.45"/>
  <rect x="308" y="52" width="88" height="36" rx="8" fill="#30363d" stroke="#30363d" stroke-width="1"/>
  <text x="352.0" y="74" text-anchor="middle" fill="#e6edf3" font-family="Segoe UI, sans-serif" font-size="11" font-weight="600">F3</text>
  <line x1="396" y1="70" x2="404" y2="70" stroke="#7ee787" stroke-width="2" opacity="0.45"/>
  <rect x="404" y="52" width="88" height="36" rx="8" fill="#30363d" stroke="#30363d" stroke-width="1"/>
  <text x="448.0" y="74" text-anchor="middle" fill="#e6edf3" font-family="Segoe UI, sans-serif" font-size="11" font-weight="600">F4</text>
  <line x1="492" y1="70" x2="500" y2="70" stroke="#7ee787" stroke-width="2" opacity="0.45"/>
  <rect x="500" y="52" width="88" height="36" rx="8" fill="#30363d" stroke="#30363d" stroke-width="1"/>
  <text x="544.0" y="74" text-anchor="middle" fill="#e6edf3" font-family="Segoe UI, sans-serif" font-size="11" font-weight="600">F5</text>
  <line x1="588" y1="70" x2="596" y2="70" stroke="#7ee787" stroke-width="2" opacity="0.45"/>
  <rect x="596" y="52" width="88" height="36" rx="8" fill="#30363d" stroke="#30363d" stroke-width="1"/>
  <text x="640.0" y="74" text-anchor="middle" fill="#e6edf3" font-family="Segoe UI, sans-serif" font-size="11" font-weight="600">F6</text>
  <line x1="684" y1="70" x2="692" y2="70" stroke="#7ee787" stroke-width="2" opacity="0.45"/>
  <rect x="692" y="52" width="88" height="36" rx="8" fill="#30363d" stroke="#30363d" stroke-width="1"/>
  <text x="736.0" y="74" text-anchor="middle" fill="#e6edf3" font-family="Segoe UI, sans-serif" font-size="11" font-weight="600">F7</text>
</svg>
