<svg xmlns="http://www.w3.org/2000/svg" width="800" height="120" viewBox="0 0 800 120" role="img" aria-label="Contributions stylisées">
  <rect width="800" height="120" rx="10" fill="#0d1117"/>
  <text x="16" y="18" fill="#e6edf3" font-size="11" font-weight="600">Activité dev — style slime</text>
  <g transform="translate(16,28) scale(0.85)">
  <rect x="0" y="0" width="13" height="13" rx="2" fill="#161b22" opacity="0.35"/>
  <rect x="15" y="0" width="13" height="13" rx="2" fill="#3fb950" opacity="0.35"/>
  <rect x="30" y="0" width="13" height="13" rx="2" fill="#7ee787" opacity="0.35"/>
  <rect x="45" y="0" width="13" height="13" rx="2" fill="#58a6ff" opacity="0.35"/>
  <rect x="60" y="0" width="13" height="13" rx="2" fill="#1a3a2a" opacity="0.35"/>
  <rect x="75" y="0" width="13" height="13" rx="2" fill="#161b22" opacity="0.35"/>
  <rect x="90" y="0" width="13" height="13" rx="2" fill="#3fb950" opacity="0.35"/>
  <rect x="105" y="0" width="13" height="13" rx="2" fill="#7ee787" opacity="0.35"/>
  <rect x="120" y="0" width="13" height="13" rx="2" fill="#58a6ff" opacity="0.35"/>
  <rect x="135" y="0" width="13" height="13" rx="2" fill="#1a3a2a" opacity="0.35"/>
  <rect x="150" y="0" width="13" height="13" rx="2" fill="#161b22" opacity="0.35"/>
  <rect x="165" y="0" width="13" height="13" rx="2" fill="#3fb950" opacity="0.35"/>
  <rect x="180" y="0" width="13" height="13" rx="2" fill="#7ee787" opacity="0.35"/>
  <rect x="195" y="0" width="13" height="13" rx="2" fill="#58a6ff" opacity="0.35"/>
  <rect x="210" y="0" width="13" height="13" rx="2" fill="#1a3a2a" opacity="0.35"/>
  <rect x="225" y="0" width="13" height="13" rx="2" fill="#161b22" opacity="0.35"/>
  <rect x="240" y="0" width="13" height="13" rx="2" fill="#3fb950" opacity="0.35"/>
  <rect x="255" y="0" width="13" height="13" rx="2" fill="#7ee787" opacity="0.35"/>
  <rect x="270" y="0" width="13" height="13" rx="2" fill="#58a6ff" opacity="0.35"/>
  <rect x="285" y="0" width="13" height="13" rx="2" fill="#1a3a2a" opacity="0.35"/>
  <rect x="300" y="0" width="13" height="13" rx="2" fill="#161b22" opacity="0.35"/>
  <rect x="315" y="0" width="13" height="13" rx="2" fill="#3fb950" opacity="0.35"/>
  <rect x="330" y="0" width="13" height="13" rx="2" fill="#7ee787" opacity="0.35"/>
  <rect x="345" y="0" width="13" height="13" rx="2" fill="#58a6ff" opacity="0.35"/>
  <rect x="360" y="0" width="13" height="13" rx="2" fill="#1a3a2a" opacity="0.35"/>
  <rect x="375" y="0" width="13" height="13" rx="2" fill="#161b22" opacity="0.35"/>
  <rect x="390" y="0" width="13" height="13" rx="2" fill="#3fb950" opacity="0.35"/>
  <rect x="405" y="0" width="13" height="13" rx="2" fill="#7ee787" opacity="0.35"/>
  <rect x="420" y="0" width="13" height="13" rx="2" fill="#58a6ff" opacity="0.35"/>
  <rect x="435" y="0" width="13" height="13" rx="2" fill="#1a3a2a" opacity="0.35"/>
  <rect x="450" y="0" width="13" height="13" rx="2" fill="#161b22" opacity="0.35"/>
  <rect x="465" y="0" width="13" height="13" rx="2" fill="#3fb950" opacity="0.35"/>
  <rect x="480" y="0" width="13" height="13" rx="2" fill="#7ee787" opacity="0.35"/>
  <rect x="495" y="0" width="13" height="13" rx="2" fill="#58a6ff" opacity="0.35"/>
  <rect x="510" y="0" width="13" height="13" rx="2" fill="#1a3a2a" opacity="0.35"/>
  <rect x="525" y="0" width="13" height="13" rx="2" fill="#161b22" opacity="0.35"/>
  <rect x="540" y="0" width="13" height="13" rx="2" fill="#3fb950" opacity="0.35"/>
  <rect x="555" y="0" width="13" height="13" rx="2" fill="#7ee787" opacity="0.35"/>
  <rect x="570" y="0" width="13" height="13" rx="2" fill="#58a6ff" opacity="0.35"/>
  <rect x="585" y="0" width="13" height="13" rx="2" fill="#1a3a2a" opacity="0.35"/>
  <rect x="600" y="0" width="13" height="13" rx="2" fill="#161b22" opacity="0.35"/>
  <rect x="615" y="0" width="13" height="13" rx="2" fill="#3fb950" opacity="0.35"/>
  <rect x="630" y="0" width="13" height="13" rx="2" fill="#7ee787" opacity="0.35"/>
  <rect x="645" y="0" width="13" height="13" rx="2" fill="#58a6ff" opacity="0.35"/>
  <rect x="660" y="0" width="13" height="13" rx="2" fill="#1a3a2a" opacity="0.35"/>
  <rect x="675" y="0" width="13" height="13" rx="2" fill="#161b22" opacity="0.35"/>
  <rect x="690" y="0" width="13" height="13" rx="2" fill="#3fb950" opacity="0.35"/>
  <rect x="705" y="0" width="13" height="13" rx="2" fill="#7ee787" opacity="0.35"/>
  <rect x="720" y="0" width="13" height="13" rx="2" fill="#58a6ff" opacity="0.35"/>
  <rect x="735" y="0" width="13" height="13" rx="2" fill="#1a3a2a" opacity="0.35"/>
  <rect x="750" y="0" width="13" height="13" rx="2" fill="#161b22" opacity="0.35"/>
  <rect x="765" y="0" width="13" height="13" rx="2" fill="#3fb950" opacity="0.35"/>
  <rect x="0" y="15" width="13" height="13" rx="2" fill="#3fb950" opacity="0.35"/>
  <rect x="15" y="15" width="13" height="13" rx="2" fill="#7ee787" opacity="0.47"/>
  <rect x="30" y="15" width="13" height="13" rx="2" fill="#58a6ff" opacity="0.59"/>
  <rect x="45" y="15" width="13" height="13" rx="2" fill="#1a3a2a" opacity="0.71"/>
  <rect x="60" y="15" width="13" height="13" rx="2" fill="#161b22" opacity="0.83"/>
  <rect x="75" y="15" width="13" height="13" rx="2" fill="#3fb950" opacity="0.35"/>
  <rect x="90" y="15" width="13" height="13" rx="2" fill="#7ee787" opacity="0.47"/>
  <rect x="105" y="15" width="13" height="13" rx="2" fill="#58a6ff" opacity="0.59"/>
  <rect x="120" y="15" width="13" height="13" rx="2" fill="#1a3a2a" opacity="0.71"/>
  <rect x="135" y="15" width="13" height="13" rx="2" fill="#161b22" opacity="0.83"/>
  <rect x="150" y="15" width="13" height="13" rx="2" fill="#3fb950" opacity="0.35"/>
  <rect x="165" y="15" width="13" height="13" rx="2" fill="#7ee787" opacity="0.47"/>
  <rect x="180" y="15" width="13" height="13" rx="2" fill="#58a6ff" opacity="0.59"/>
  <rect x="195" y="15" width="13" height="13" rx="2" fill="#1a3a2a" opacity="0.71"/>
  <rect x="210" y="15" width="13" height="13" rx="2" fill="#161b22" opacity="0.83"/>
  <rect x="225" y="15" width="13" height="13" rx="2" fill="#3fb950" opacity="0.35"/>
  <rect x="240" y="15" width="13" height="13" rx="2" fill="#7ee787" opacity="0.47"/>
  <rect x="255" y="15" width="13" height="13" rx="2" fill="#58a6ff" opacity="0.59"/>
  <rect x="270" y="15" width="13" height="13" rx="2" fill="#1a3a2a" opacity="0.71"/>
  <rect x="285" y="15" width="13" height="13" rx="2" fill="#161b22" opacity="0.83"/>
  <rect x="300" y="15" width="13" height="13" rx="2" fill="#3fb950" opacity="0.35"/>
  <rect x="315" y="15" width="13" height="13" rx="2" fill="#7ee787" opacity="0.47"/>
  <rect x="330" y="15" width="13" height="13" rx="2" fill="#58a6ff" opacity="0.59"/>
  <rect x="345" y="15" width="13" height="13" rx="2" fill="#1a3a2a" opacity="0.71"/>
  <rect x="360" y="15" width="13" height="13" rx="2" fill="#161b22" opacity="0.83"/>
  <rect x="375" y="15" width="13" height="13" rx="2" fill="#3fb950" opacity="0.35"/>
  <rect x="390" y="15" width="13" height="13" rx="2" fill="#7ee787" opacity="0.47"/>
  <rect x="405" y="15" width="13" height="13" rx="2" fill="#58a6ff" opacity="0.59"/>
  <rect x="420" y="15" width="13" height="13" rx="2" fill="#1a3a2a" opacity="0.71"/>
  <rect x="435" y="15" width="13" height="13" rx="2" fill="#161b22" opacity="0.83"/>
  <rect x="450" y="15" width="13" height="13" rx="2" fill="#3fb950" opacity="0.35"/>
  <rect x="465" y="15" width="13" height="13" rx="2" fill="#7ee787" opacity="0.47"/>
  <rect x="480" y="15" width="13" height="13" rx="2" fill="#58a6ff" opacity="0.59"/>
  <rect x="495" y="15" width="13" height="13" rx="2" fill="#1a3a2a" opacity="0.71"/>
  <rect x="510" y="15" width="13" height="13" rx="2" fill="#161b22" opacity="0.83"/>
  <rect x="525" y="15" width="13" height="13" rx="2" fill="#3fb950" opacity="0.35"/>
  <rect x="540" y="15" width="13" height="13" rx="2" fill="#7ee787" opacity="0.47"/>
  <rect x="555" y="15" width="13" height="13" rx="2" fill="#58a6ff" opacity="0.59"/>
  <rect x="570" y="15" width="13" height="13" rx="2" fill="#1a3a2a" opacity="0.71"/>
  <rect x="585" y="15" width="13" height="13" rx="2" fill="#161b22" opacity="0.83"/>
  <rect x="600" y="15" width="13" height="13" rx="2" fill="#3fb950" opacity="0.35"/>
  <rect x="615" y="15" width="13" height="13" rx="2" fill="#7ee787" opacity="0.47"/>
  <rect x="630" y="15" width="13" height="13" rx="2" fill="#58a6ff" opacity="0.59"/>
  <rect x="645" y="15" width="13" height="13" rx="2" fill="#1a3a2a" opacity="0.71"/>
  <rect x="660" y="15" width="13" height="13" rx="2" fill="#161b22" opacity="0.83"/>
  <rect x="675" y="15" width="13" height="13" rx="2" fill="#3fb950" opacity="0.35"/>
  <rect x="690" y="15" width="13" height="13" rx="2" fill="#7ee787" opacity="0.47"/>
  <rect x="705" y="15" width="13" height="13" rx="2" fill="#58a6ff" opacity="0.59"/>
  <rect x="720" y="15" width="13" height="13" rx="2" fill="#1a3a2a" opacity="0.71"/>
  <rect x="735" y="15" width="13" height="13" rx="2" fill="#161b22" opacity="0.83"/>
  <rect x="750" y="15" width="13" height="13" rx="2" fill="#3fb950" opacity="0.35"/>
  <rect x="765" y="15" width="13" height="13" rx="2" fill="#7ee787" opacity="0.47"/>
  <rect x="0" y="30" width="13" height="13" rx="2" fill="#7ee787" opacity="0.35"/>
  <rect x="15" y="30" width="13" height="13" rx="2" fill="#58a6ff" opacity="0.59"/>
  <rect x="30" y="30" width="13" height="13" rx="2" fill="#1a3a2a" opacity="0.83"/>
  <rect x="45" y="30" width="13" height="13" rx="2" fill="#161b22" opacity="0.47"/>
  <rect x="60" y="30" width="13" height="13" rx="2" fill="#3fb950" opacity="0.71"/>
  <rect x="75" y="30" width="13" height="13" rx="2" fill="#7ee787" opacity="0.35"/>
  <rect x="90" y="30" width="13" height="13" rx="2" fill="#58a6ff" opacity="0.59"/>
  <rect x="105" y="30" width="13" height="13" rx="2" fill="#1a3a2a" opacity="0.83"/>
  <rect x="120" y="30" width="13" height="13" rx="2" fill="#161b22" opacity="0.47"/>
  <rect x="135" y="30" width="13" height="13" rx="2" fill="#3fb950" opacity="0.71"/>
  <rect x="150" y="30" width="13" height="13" rx="2" fill="#7ee787" opacity="0.35"/>
  <rect x="165" y="30" width="13" height="13" rx="2" fill="#58a6ff" opacity="0.59"/>
  <rect x="180" y="30" width="13" height="13" rx="2" fill="#1a3a2a" opacity="0.83"/>
  <rect x="195" y="30" width="13" height="13" rx="2" fill="#161b22" opacity="0.47"/>
  <rect x="210" y="30" width="13" height="13" rx="2" fill="#3fb950" opacity="0.71"/>
  <rect x="225" y="30" width="13" height="13" rx="2" fill="#7ee787" opacity="0.35"/>
  <rect x="240" y="30" width="13" height="13" rx="2" fill="#58a6ff" opacity="0.59"/>
  <rect x="255" y="30" width="13" height="13" rx="2" fill="#1a3a2a" opacity="0.83"/>
  <rect x="270" y="30" width="13" height="13" rx="2" fill="#161b22" opacity="0.47"/>
  <rect x="285" y="30" width="13" height="13" rx="2" fill="#3fb950" opacity="0.71"/>
  <rect x="300" y="30" width="13" height="13" rx="2" fill="#7ee787" opacity="0.35"/>
  <rect x="315" y="30" width="13" height="13" rx="2" fill="#58a6ff" opacity="0.59"/>
  <rect x="330" y="30" width="13" height="13" rx="2" fill="#1a3a2a" opacity="0.83"/>
  <rect x="345" y="30" width="13" height="13" rx="2" fill="#161b22" opacity="0.47"/>
  <rect x="360" y="30" width="13" height="13" rx="2" fill="#3fb950" opacity="0.71"/>
  <rect x="375" y="30" width="13" height="13" rx="2" fill="#7ee787" opacity="0.35"/>
  <rect x="390" y="30" width="13" height="13" rx="2" fill="#58a6ff" opacity="0.59"/>
  <rect x="405" y="30" width="13" height="13" rx="2" fill="#1a3a2a" opacity="0.83"/>
  <rect x="420" y="30" width="13" height="13" rx="2" fill="#161b22" opacity="0.47"/>
  <rect x="435" y="30" width="13" height="13" rx="2" fill="#3fb950" opacity="0.71"/>
  <rect x="450" y="30" width="13" height="13" rx="2" fill="#7ee787" opacity="0.35"/>
  <rect x="465" y="30" width="13" height="13" rx="2" fill="#58a6ff" opacity="0.59"/>
  <rect x="480" y="30" width="13" height="13" rx="2" fill="#1a3a2a" opacity="0.83"/>
  <rect x="495" y="30" width="13" height="13" rx="2" fill="#161b22" opacity="0.47"/>
  <rect x="510" y="30" width="13" height="13" rx="2" fill="#3fb950" opacity="0.71"/>
  <rect x="525" y="30" width="13" height="13" rx="2" fill="#7ee787" opacity="0.35"/>
  <rect x="540" y="30" width="13" height="13" rx="2" fill="#58a6ff" opacity="0.59"/>
  <rect x="555" y="30" width="13" height="13" rx="2" fill="#1a3a2a" opacity="0.83"/>
  <rect x="570" y="30" width="13" height="13" rx="2" fill="#161b22" opacity="0.47"/>
  <rect x="585" y="30" width="13" height="13" rx="2" fill="#3fb950" opacity="0.71"/>
  <rect x="600" y="30" width="13" height="13" rx="2" fill="#7ee787" opacity="0.35"/>
  <rect x="615" y="30" width="13" height="13" rx="2" fill="#58a6ff" opacity="0.59"/>
  <rect x="630" y="30" width="13" height="13" rx="2" fill="#1a3a2a" opacity="0.83"/>
  <rect x="645" y="30" width="13" height="13" rx="2" fill="#161b22" opacity="0.47"/>
  <rect x="660" y="30" width="13" height="13" rx="2" fill="#3fb950" opacity="0.71"/>
  <rect x="675" y="30" width="13" height="13" rx="2" fill="#7ee787" opacity="0.35"/>
  <rect x="690" y="30" width="13" height="13" rx="2" fill="#58a6ff" opacity="0.59"/>
  <rect x="705" y="30" width="13" height="13" rx="2" fill="#1a3a2a" opacity="0.83"/>
  <rect x="720" y="30" width="13" height="13" rx="2" fill="#161b22" opacity="0.47"/>
  <rect x="735" y="30" width="13" height="13" rx="2" fill="#3fb950" opacity="0.71"/>
  <rect x="750" y="30" width="13" height="13" rx="2" fill="#7ee787" opacity="0.35"/>
  <rect x="765" y="30" width="13" height="13" rx="2" fill="#58a6ff" opacity="0.59"/>
  <rect x="0" y="45" width="13" height="13" rx="2" fill="#58a6ff" opacity="0.35"/>
  <rect x="15" y="45" width="13" height="13" rx="2" fill="#1a3a2a" opacity="0.71"/>
  <rect x="30" y="45" width="13" height="13" rx="2" fill="#161b22" opacity="0.47"/>
  <rect x="45" y="45" width="13" height="13" rx="2" fill="#3fb950" opacity="0.83"/>
  <rect x="60" y="45" width="13" height="13" rx="2" fill="#7ee787" opacity="0.59"/>
  <rect x="75" y="45" width="13" height="13" rx="2" fill="#58a6ff" opacity="0.35"/>
  <rect x="90" y="45" width="13" height="13" rx="2" fill="#1a3a2a" opacity="0.71"/>
  <rect x="105" y="45" width="13" height="13" rx="2" fill="#161b22" opacity="0.47"/>
  <rect x="120" y="45" width="13" height="13" rx="2" fill="#3fb950" opacity="0.83"/>
  <rect x="135" y="45" width="13" height="13" rx="2" fill="#7ee787" opacity="0.59"/>
  <rect x="150" y="45" width="13" height="13" rx="2" fill="#58a6ff" opacity="0.35"/>
  <rect x="165" y="45" width="13" height="13" rx="2" fill="#1a3a2a" opacity="0.71"/>
  <rect x="180" y="45" width="13" height="13" rx="2" fill="#161b22" opacity="0.47"/>
  <rect x="195" y="45" width="13" height="13" rx="2" fill="#3fb950" opacity="0.83"/>
  <rect x="210" y="45" width="13" height="13" rx="2" fill="#7ee787" opacity="0.59"/>
  <rect x="225" y="45" width="13" height="13" rx="2" fill="#58a6ff" opacity="0.35"/>
  <rect x="240" y="45" width="13" height="13" rx="2" fill="#1a3a2a" opacity="0.71"/>
  <rect x="255" y="45" width="13" height="13" rx="2" fill="#161b22" opacity="0.47"/>
  <rect x="270" y="45" width="13" height="13" rx="2" fill="#3fb950" opacity="0.83"/>
  <rect x="285" y="45" width="13" height="13" rx="2" fill="#7ee787" opacity="0.59"/>
  <rect x="300" y="45" width="13" height="13" rx="2" fill="#58a6ff" opacity="0.35"/>
  <rect x="315" y="45" width="13" height="13" rx="2" fill="#1a3a2a" opacity="0.71"/>
  <rect x="330" y="45" width="13" height="13" rx="2" fill="#161b22" opacity="0.47"/>
  <rect x="345" y="45" width="13" height="13" rx="2" fill="#3fb950" opacity="0.83"/>
  <rect x="360" y="45" width="13" height="13" rx="2" fill="#7ee787" opacity="0.59"/>
  <rect x="375" y="45" width="13" height="13" rx="2" fill="#58a6ff" opacity="0.35"/>
  <rect x="390" y="45" width="13" height="13" rx="2" fill="#1a3a2a" opacity="0.71"/>
  <rect x="405" y="45" width="13" height="13" rx="2" fill="#161b22" opacity="0.47"/>
  <rect x="420" y="45" width="13" height="13" rx="2" fill="#3fb950" opacity="0.83"/>
  <rect x="435" y="45" width="13" height="13" rx="2" fill="#7ee787" opacity="0.59"/>
  <rect x="450" y="45" width="13" height="13" rx="2" fill="#58a6ff" opacity="0.35"/>
  <rect x="465" y="45" width="13" height="13" rx="2" fill="#1a3a2a" opacity="0.71"/>
  <rect x="480" y="45" width="13" height="13" rx="2" fill="#161b22" opacity="0.47"/>
  <rect x="495" y="45" width="13" height="13" rx="2" fill="#3fb950" opacity="0.83"/>
  <rect x="510" y="45" width="13" height="13" rx="2" fill="#7ee787" opacity="0.59"/>
  <rect x="525" y="45" width="13" height="13" rx="2" fill="#58a6ff" opacity="0.35"/>
  <rect x="540" y="45" width="13" height="13" rx="2" fill="#1a3a2a" opacity="0.71"/>
  <rect x="555" y="45" width="13" height="13" rx="2" fill="#161b22" opacity="0.47"/>
  <rect x="570" y="45" width="13" height="13" rx="2" fill="#3fb950" opacity="0.83"/>
  <rect x="585" y="45" width="13" height="13" rx="2" fill="#7ee787" opacity="0.59"/>
  <rect x="600" y="45" width="13" height="13" rx="2" fill="#58a6ff" opacity="0.35"/>
  <rect x="615" y="45" width="13" height="13" rx="2" fill="#1a3a2a" opacity="0.71"/>
  <rect x="630" y="45" width="13" height="13" rx="2" fill="#161b22" opacity="0.47"/>
  <rect x="645" y="45" width="13" height="13" rx="2" fill="#3fb950" opacity="0.83"/>
  <rect x="660" y="45" width="13" height="13" rx="2" fill="#7ee787" opacity="0.59"/>
  <rect x="675" y="45" width="13" height="13" rx="2" fill="#58a6ff" opacity="0.35"/>
  <rect x="690" y="45" width="13" height="13" rx="2" fill="#1a3a2a" opacity="0.71"/>
  <rect x="705" y="45" width="13" height="13" rx="2" fill="#161b22" opacity="0.47"/>
  <rect x="720" y="45" width="13" height="13" rx="2" fill="#3fb950" opacity="0.83"/>
  <rect x="735" y="45" width="13" height="13" rx="2" fill="#7ee787" opacity="0.59"/>
  <rect x="750" y="45" width="13" height="13" rx="2" fill="#58a6ff" opacity="0.35"/>
  <rect x="765" y="45" width="13" height="13" rx="2" fill="#1a3a2a" opacity="0.71"/>
  <rect x="0" y="60" width="13" height="13" rx="2" fill="#1a3a2a" opacity="0.35"/>
  <rect x="15" y="60" width="13" height="13" rx="2" fill="#161b22" opacity="0.83"/>
  <rect x="30" y="60" width="13" height="13" rx="2" fill="#3fb950" opacity="0.71"/>
  <rect x="45" y="60" width="13" height="13" rx="2" fill="#7ee787" opacity="0.59"/>
  <rect x="60" y="60" width="13" height="13" rx="2" fill="#58a6ff" opacity="0.47"/>
  <rect x="75" y="60" width="13" height="13" rx="2" fill="#1a3a2a" opacity="0.35"/>
  <rect x="90" y="60" width="13" height="13" rx="2" fill="#161b22" opacity="0.83"/>
  <rect x="105" y="60" width="13" height="13" rx="2" fill="#3fb950" opacity="0.71"/>
  <rect x="120" y="60" width="13" height="13" rx="2" fill="#7ee787" opacity="0.59"/>
  <rect x="135" y="60" width="13" height="13" rx="2" fill="#58a6ff" opacity="0.47"/>
  <rect x="150" y="60" width="13" height="13" rx="2" fill="#1a3a2a" opacity="0.35"/>
  <rect x="165" y="60" width="13" height="13" rx="2" fill="#161b22" opacity="0.83"/>
  <rect x="180" y="60" width="13" height="13" rx="2" fill="#3fb950" opacity="0.71"/>
  <rect x="195" y="60" width="13" height="13" rx="2" fill="#7ee787" opacity="0.59"/>
  <rect x="210" y="60" width="13" height="13" rx="2" fill="#58a6ff" opacity="0.47"/>
  <rect x="225" y="60" width="13" height="13" rx="2" fill="#1a3a2a" opacity="0.35"/>
  <rect x="240" y="60" width="13" height="13" rx="2" fill="#161b22" opacity="0.83"/>
  <rect x="255" y="60" width="13" height="13" rx="2" fill="#3fb950" opacity="0.71"/>
  <rect x="270" y="60" width="13" height="13" rx="2" fill="#7ee787" opacity="0.59"/>
  <rect x="285" y="60" width="13" height="13" rx="2" fill="#58a6ff" opacity="0.47"/>
  <rect x="300" y="60" width="13" height="13" rx="2" fill="#1a3a2a" opacity="0.35"/>
  <rect x="315" y="60" width="13" height="13" rx="2" fill="#161b22" opacity="0.83"/>
  <rect x="330" y="60" width="13" height="13" rx="2" fill="#3fb950" opacity="0.71"/>
  <rect x="345" y="60" width="13" height="13" rx="2" fill="#7ee787" opacity="0.59"/>
  <rect x="360" y="60" width="13" height="13" rx="2" fill="#58a6ff" opacity="0.47"/>
  <rect x="375" y="60" width="13" height="13" rx="2" fill="#1a3a2a" opacity="0.35"/>
  <rect x="390" y="60" width="13" height="13" rx="2" fill="#161b22" opacity="0.83"/>
  <rect x="405" y="60" width="13" height="13" rx="2" fill="#3fb950" opacity="0.71"/>
  <rect x="420" y="60" width="13" height="13" rx="2" fill="#7ee787" opacity="0.59"/>
  <rect x="435" y="60" width="13" height="13" rx="2" fill="#58a6ff" opacity="0.47"/>
  <rect x="450" y="60" width="13" height="13" rx="2" fill="#1a3a2a" opacity="0.35"/>
  <rect x="465" y="60" width="13" height="13" rx="2" fill="#161b22" opacity="0.83"/>
  <rect x="480" y="60" width="13" height="13" rx="2" fill="#3fb950" opacity="0.71"/>
  <rect x="495" y="60" width="13" height="13" rx="2" fill="#7ee787" opacity="0.59"/>
  <rect x="510" y="60" width="13" height="13" rx="2" fill="#58a6ff" opacity="0.47"/>
  <rect x="525" y="60" width="13" height="13" rx="2" fill="#1a3a2a" opacity="0.35"/>
  <rect x="540" y="60" width="13" height="13" rx="2" fill="#161b22" opacity="0.83"/>
  <rect x="555" y="60" width="13" height="13" rx="2" fill="#3fb950" opacity="0.71"/>
  <rect x="570" y="60" width="13" height="13" rx="2" fill="#7ee787" opacity="0.59"/>
  <rect x="585" y="60" width="13" height="13" rx="2" fill="#58a6ff" opacity="0.47"/>
  <rect x="600" y="60" width="13" height="13" rx="2" fill="#1a3a2a" opacity="0.35"/>
  <rect x="615" y="60" width="13" height="13" rx="2" fill="#161b22" opacity="0.83"/>
  <rect x="630" y="60" width="13" height="13" rx="2" fill="#3fb950" opacity="0.71"/>
  <rect x="645" y="60" width="13" height="13" rx="2" fill="#7ee787" opacity="0.59"/>
  <rect x="660" y="60" width="13" height="13" rx="2" fill="#58a6ff" opacity="0.47"/>
  <rect x="675" y="60" width="13" height="13" rx="2" fill="#1a3a2a" opacity="0.35"/>
  <rect x="690" y="60" width="13" height="13" rx="2" fill="#161b22" opacity="0.83"/>
  <rect x="705" y="60" width="13" height="13" rx="2" fill="#3fb950" opacity="0.71"/>
  <rect x="720" y="60" width="13" height="13" rx="2" fill="#7ee787" opacity="0.59"/>
  <rect x="735" y="60" width="13" height="13" rx="2" fill="#58a6ff" opacity="0.47"/>
  <rect x="750" y="60" width="13" height="13" rx="2" fill="#1a3a2a" opacity="0.35"/>
  <rect x="765" y="60" width="13" height="13" rx="2" fill="#161b22" opacity="0.83"/>
  <rect x="0" y="75" width="13" height="13" rx="2" fill="#161b22" opacity="0.35"/>
  <rect x="15" y="75" width="13" height="13" rx="2" fill="#3fb950" opacity="0.35"/>
  <rect x="30" y="75" width="13" height="13" rx="2" fill="#7ee787" opacity="0.35"/>
  <rect x="45" y="75" width="13" height="13" rx="2" fill="#58a6ff" opacity="0.35"/>
  <rect x="60" y="75" width="13" height="13" rx="2" fill="#1a3a2a" opacity="0.35"/>
  <rect x="75" y="75" width="13" height="13" rx="2" fill="#161b22" opacity="0.35"/>
  <rect x="90" y="75" width="13" height="13" rx="2" fill="#3fb950" opacity="0.35"/>
  <rect x="105" y="75" width="13" height="13" rx="2" fill="#7ee787" opacity="0.35"/>
  <rect x="120" y="75" width="13" height="13" rx="2" fill="#58a6ff" opacity="0.35"/>
  <rect x="135" y="75" width="13" height="13" rx="2" fill="#1a3a2a" opacity="0.35"/>
  <rect x="150" y="75" width="13" height="13" rx="2" fill="#161b22" opacity="0.35"/>
  <rect x="165" y="75" width="13" height="13" rx="2" fill="#3fb950" opacity="0.35"/>
  <rect x="180" y="75" width="13" height="13" rx="2" fill="#7ee787" opacity="0.35"/>
  <rect x="195" y="75" width="13" height="13" rx="2" fill="#58a6ff" opacity="0.35"/>
  <rect x="210" y="75" width="13" height="13" rx="2" fill="#1a3a2a" opacity="0.35"/>
  <rect x="225" y="75" width="13" height="13" rx="2" fill="#161b22" opacity="0.35"/>
  <rect x="240" y="75" width="13" height="13" rx="2" fill="#3fb950" opacity="0.35"/>
  <rect x="255" y="75" width="13" height="13" rx="2" fill="#7ee787" opacity="0.35"/>
  <rect x="270" y="75" width="13" height="13" rx="2" fill="#58a6ff" opacity="0.35"/>
  <rect x="285" y="75" width="13" height="13" rx="2" fill="#1a3a2a" opacity="0.35"/>
  <rect x="300" y="75" width="13" height="13" rx="2" fill="#161b22" opacity="0.35"/>
  <rect x="315" y="75" width="13" height="13" rx="2" fill="#3fb950" opacity="0.35"/>
  <rect x="330" y="75" width="13" height="13" rx="2" fill="#7ee787" opacity="0.35"/>
  <rect x="345" y="75" width="13" height="13" rx="2" fill="#58a6ff" opacity="0.35"/>
  <rect x="360" y="75" width="13" height="13" rx="2" fill="#1a3a2a" opacity="0.35"/>
  <rect x="375" y="75" width="13" height="13" rx="2" fill="#161b22" opacity="0.35"/>
  <rect x="390" y="75" width="13" height="13" rx="2" fill="#3fb950" opacity="0.35"/>
  <rect x="405" y="75" width="13" height="13" rx="2" fill="#7ee787" opacity="0.35"/>
  <rect x="420" y="75" width="13" height="13" rx="2" fill="#58a6ff" opacity="0.35"/>
  <rect x="435" y="75" width="13" height="13" rx="2" fill="#1a3a2a" opacity="0.35"/>
  <rect x="450" y="75" width="13" height="13" rx="2" fill="#161b22" opacity="0.35"/>
  <rect x="465" y="75" width="13" height="13" rx="2" fill="#3fb950" opacity="0.35"/>
  <rect x="480" y="75" width="13" height="13" rx="2" fill="#7ee787" opacity="0.35"/>
  <rect x="495" y="75" width="13" height="13" rx="2" fill="#58a6ff" opacity="0.35"/>
  <rect x="510" y="75" width="13" height="13" rx="2" fill="#1a3a2a" opacity="0.35"/>
  <rect x="525" y="75" width="13" height="13" rx="2" fill="#161b22" opacity="0.35"/>
  <rect x="540" y="75" width="13" height="13" rx="2" fill="#3fb950" opacity="0.35"/>
  <rect x="555" y="75" width="13" height="13" rx="2" fill="#7ee787" opacity="0.35"/>
  <rect x="570" y="75" width="13" height="13" rx="2" fill="#58a6ff" opacity="0.35"/>
  <rect x="585" y="75" width="13" height="13" rx="2" fill="#1a3a2a" opacity="0.35"/>
  <rect x="600" y="75" width="13" height="13" rx="2" fill="#161b22" opacity="0.35"/>
  <rect x="615" y="75" width="13" height="13" rx="2" fill="#3fb950" opacity="0.35"/>
  <rect x="630" y="75" width="13" height="13" rx="2" fill="#7ee787" opacity="0.35"/>
  <rect x="645" y="75" width="13" height="13" rx="2" fill="#58a6ff" opacity="0.35"/>
  <rect x="660" y="75" width="13" height="13" rx="2" fill="#1a3a2a" opacity="0.35"/>
  <rect x="675" y="75" width="13" height="13" rx="2" fill="#161b22" opacity="0.35"/>
  <rect x="690" y="75" width="13" height="13" rx="2" fill="#3fb950" opacity="0.35"/>
  <rect x="705" y="75" width="13" height="13" rx="2" fill="#7ee787" opacity="0.35"/>
  <rect x="720" y="75" width="13" height="13" rx="2" fill="#58a6ff" opacity="0.35"/>
  <rect x="735" y="75" width="13" height="13" rx="2" fill="#1a3a2a" opacity="0.35"/>
  <rect x="750" y="75" width="13" height="13" rx="2" fill="#161b22" opacity="0.35"/>
  <rect x="765" y="75" width="13" height="13" rx="2" fill="#3fb950" opacity="0.35"/>
  <rect x="0" y="90" width="13" height="13" rx="2" fill="#3fb950" opacity="0.35"/>
  <rect x="15" y="90" width="13" height="13" rx="2" fill="#7ee787" opacity="0.47"/>
  <rect x="30" y="90" width="13" height="13" rx="2" fill="#58a6ff" opacity="0.59"/>
  <rect x="45" y="90" width="13" height="13" rx="2" fill="#1a3a2a" opacity="0.71"/>
  <rect x="60" y="90" width="13" height="13" rx="2" fill="#161b22" opacity="0.83"/>
  <rect x="75" y="90" width="13" height="13" rx="2" fill="#3fb950" opacity="0.35"/>
  <rect x="90" y="90" width="13" height="13" rx="2" fill="#7ee787" opacity="0.47"/>
  <rect x="105" y="90" width="13" height="13" rx="2" fill="#58a6ff" opacity="0.59"/>
  <rect x="120" y="90" width="13" height="13" rx="2" fill="#1a3a2a" opacity="0.71"/>
  <rect x="135" y="90" width="13" height="13" rx="2" fill="#161b22" opacity="0.83"/>
  <rect x="150" y="90" width="13" height="13" rx="2" fill="#3fb950" opacity="0.35"/>
  <rect x="165" y="90" width="13" height="13" rx="2" fill="#7ee787" opacity="0.47"/>
  <rect x="180" y="90" width="13" height="13" rx="2" fill="#58a6ff" opacity="0.59"/>
  <rect x="195" y="90" width="13" height="13" rx="2" fill="#1a3a2a" opacity="0.71"/>
  <rect x="210" y="90" width="13" height="13" rx="2" fill="#161b22" opacity="0.83"/>
  <rect x="225" y="90" width="13" height="13" rx="2" fill="#3fb950" opacity="0.35"/>
  <rect x="240" y="90" width="13" height="13" rx="2" fill="#7ee787" opacity="0.47"/>
  <rect x="255" y="90" width="13" height="13" rx="2" fill="#58a6ff" opacity="0.59"/>
  <rect x="270" y="90" width="13" height="13" rx="2" fill="#1a3a2a" opacity="0.71"/>
  <rect x="285" y="90" width="13" height="13" rx="2" fill="#161b22" opacity="0.83"/>
  <rect x="300" y="90" width="13" height="13" rx="2" fill="#3fb950" opacity="0.35"/>
  <rect x="315" y="90" width="13" height="13" rx="2" fill="#7ee787" opacity="0.47"/>
  <rect x="330" y="90" width="13" height="13" rx="2" fill="#58a6ff" opacity="0.59"/>
  <rect x="345" y="90" width="13" height="13" rx="2" fill="#1a3a2a" opacity="0.71"/>
  <rect x="360" y="90" width="13" height="13" rx="2" fill="#161b22" opacity="0.83"/>
  <rect x="375" y="90" width="13" height="13" rx="2" fill="#3fb950" opacity="0.35"/>
  <rect x="390" y="90" width="13" height="13" rx="2" fill="#7ee787" opacity="0.47"/>
  <rect x="405" y="90" width="13" height="13" rx="2" fill="#58a6ff" opacity="0.59"/>
  <rect x="420" y="90" width="13" height="13" rx="2" fill="#1a3a2a" opacity="0.71"/>
  <rect x="435" y="90" width="13" height="13" rx="2" fill="#161b22" opacity="0.83"/>
  <rect x="450" y="90" width="13" height="13" rx="2" fill="#3fb950" opacity="0.35"/>
  <rect x="465" y="90" width="13" height="13" rx="2" fill="#7ee787" opacity="0.47"/>
  <rect x="480" y="90" width="13" height="13" rx="2" fill="#58a6ff" opacity="0.59"/>
  <rect x="495" y="90" width="13" height="13" rx="2" fill="#1a3a2a" opacity="0.71"/>
  <rect x="510" y="90" width="13" height="13" rx="2" fill="#161b22" opacity="0.83"/>
  <rect x="525" y="90" width="13" height="13" rx="2" fill="#3fb950" opacity="0.35"/>
  <rect x="540" y="90" width="13" height="13" rx="2" fill="#7ee787" opacity="0.47"/>
  <rect x="555" y="90" width="13" height="13" rx="2" fill="#58a6ff" opacity="0.59"/>
  <rect x="570" y="90" width="13" height="13" rx="2" fill="#1a3a2a" opacity="0.71"/>
  <rect x="585" y="90" width="13" height="13" rx="2" fill="#161b22" opacity="0.83"/>
  <rect x="600" y="90" width="13" height="13" rx="2" fill="#3fb950" opacity="0.35"/>
  <rect x="615" y="90" width="13" height="13" rx="2" fill="#7ee787" opacity="0.47"/>
  <rect x="630" y="90" width="13" height="13" rx="2" fill="#58a6ff" opacity="0.59"/>
  <rect x="645" y="90" width="13" height="13" rx="2" fill="#1a3a2a" opacity="0.71"/>
  <rect x="660" y="90" width="13" height="13" rx="2" fill="#161b22" opacity="0.83"/>
  <rect x="675" y="90" width="13" height="13" rx="2" fill="#3fb950" opacity="0.35"/>
  <rect x="690" y="90" width="13" height="13" rx="2" fill="#7ee787" opacity="0.47"/>
  <rect x="705" y="90" width="13" height="13" rx="2" fill="#58a6ff" opacity="0.59"/>
  <rect x="720" y="90" width="13" height="13" rx="2" fill="#1a3a2a" opacity="0.71"/>
  <rect x="735" y="90" width="13" height="13" rx="2" fill="#161b22" opacity="0.83"/>
  <rect x="750" y="90" width="13" height="13" rx="2" fill="#3fb950" opacity="0.35"/>
  <rect x="765" y="90" width="13" height="13" rx="2" fill="#7ee787" opacity="0.47"/>
  </g>
</svg>
